<?xml version="1.0" standalone="no"?>
<!DOCTYPE svg PUBLIC "-//W3C//DTD SVG 1.1//EN" "http://www.w3.org/Graphics/SVG/1.1/DTD/svg11.dtd" >
<svg xmlns="http://www.w3.org/2000/svg" xmlns:xlink="http://www.w3.org/1999/xlink" version="1.1">
<metadata>
Created by FontForge 20170731 at Thu Jun  7 12:56:10 2018
 By Aleksey,,,
</metadata>
<defs>
<font id="NaukriGulf_Glyphs" horiz-adv-x="1000" >
  <font-face 
    font-family="NaukriGulf_Glyphs"
    font-weight="400"
    font-stretch="normal"
    units-per-em="1000"
    panose-1="2 0 5 9 0 0 0 0 0 0"
    ascent="800"
    descent="-200"
    x-height="800"
    cap-height="817"
    bbox="-54 -200 1014 817"
    underline-thickness="50"
    underline-position="-900"
    unicode-range="U+0041-007A"
  />
<missing-glyph 
d="M33 0v666h265v-666h-265zM66 33h199v600h-199v-600z" />
    <glyph glyph-name=".notdef" 
d="M33 0v666h265v-666h-265zM66 33h199v600h-199v-600z" />
    <glyph glyph-name=".null" horiz-adv-x="0" 
 />
    <glyph glyph-name=".null" horiz-adv-x="0" 
 />
    <glyph glyph-name="nonmarkingreturn" 
 />
    <glyph glyph-name="A" unicode="A" 
d="M500 737q-51 0 -102.5 -25t-84 -61.5t-32.5 -69.5v-156q0 -54 25.5 -123t69.5 -105q27 -22 23 -56.5t-36 -48.5l-274 -130q-27 -12 -27 -36v-64h876l-1 62q0 6 -1 11t-2.5 8.5t-4 6.5t-4.5 5t-4.5 3.5t-4 2t-3.5 1.5h-2l-272 129q-32 15 -36 49.5t24 56.5q45 36 68.5 104
t23.5 124v156q0 33 -32 69.5t-84 61.5t-103 25zM500 800q67 0 133 -33t107 -84t41 -102v-156q0 -69 -28.5 -150t-87.5 -127l273 -129l6 -3q4 -2 15 -8.5t19 -13.5t15 -17t7 -21v-94q0 -25 -18.5 -43.5t-43.5 -18.5h-876q-25 0 -43.5 18.5t-18.5 43.5v94q0 7 3.5 14.5t9 13.5
t12 11.5t13.5 9.5t12.5 7.5t8.5 4.5l3 2l275 129q-59 48 -89 130.5t-30 146.5v156q0 51 41.5 102t107.5 84t133 33z" />
    <glyph glyph-name="B" unicode="B" 
d="M938 16q2 -1 6 -2.5t15 -8.5t19 -14.5t15 -20.5t7 -28v-82q0 -26 -18 -43t-44 -17h-876q-26 0 -44 17t-18 43v82q0 11 3.5 21t9 17t12 13t13.5 10.5t12.5 7t8.5 4.5l3 1l272 129q-13 7 -60 14.5t-85.5 17.5t-43.5 24l15 27q10 17 29 69t25 102q2 10 10.5 71.5t13.5 108.5
q11 97 84.5 159t177.5 62t177.5 -62t84.5 -159q5 -47 13.5 -108.5t10.5 -71.5q6 -50 23 -99.5t32 -73.5l14 -25q-5 -14 -43.5 -24t-85.5 -17.5t-60 -14.5zM62 -138h876v80q-4 9 -22 15q-3 2 -5 3l-272 129q-16 7 -26 22.5t-10 33t9.5 33t25.5 23.5q22 11 93 23q21 4 38 8
q-36 80 -45 159q-2 12 -8 54q-10 71 -16 127q-8 73 -64 119.5t-136 46.5t-136 -46.5t-64 -119.5l-16 -127q-5 -35 -8 -54q-9 -79 -45 -159q18 -4 38 -8q71 -12 93 -23q17 -8 26 -23.5t9 -33.5t-10 -33t-26 -22l-272 -129q-2 -2 -5 -3q-7 -2 -14.5 -7t-7.5 -8v-80z" />
    <glyph glyph-name="C" unicode="C" 
d="M999 560l1 -3v-5v-500q0 -43 -21 -76.5t-57 -33.5h-813q-38 0 -73.5 35.5t-35.5 74.5v500q0 3 1 8q-3 14 7 25q2 2 4 5q15 19 41.5 29.5t55.5 10.5h813q63 0 75 -52q4 -9 2 -18zM109 568q-22 0 -30 -2l421 -335l422 337h-813zM922 5q16 0 16 43v4v448l-418 -334
q-8 -8 -20 -8t-20 8l-418 334v-448q0 -13 17 -30t30 -17h813z" />
    <glyph glyph-name="D" unicode="D" 
d="M1000 300q0 -98 -37 -187.5t-99.5 -156t-149.5 -108t-184 -47.5q-9 -1 -16 -1h-3h-2h-4h-5q-136 0 -251 67t-182 182t-67 251t67 251t182 182t251 67h5h4h2h3q7 0 16 -1q197 -12 333.5 -156t136.5 -343zM907 139q31 78 31 161q0 88 -34 169l12 -34q-43 -15 -142 -27
q6 -53 6 -108q0 -70 -10 -136q87 -10 137 -25zM279 300q0 -66 11 -130q83 7 178 8v216q-97 1 -182 8q-7 -51 -7 -102zM530 733v-276q93 1 171 7q-22 106 -68 179.5t-103 89.5zM468 733q-57 -18 -103 -91t-69 -178q81 -6 172 -7v276zM468 115q-88 -1 -165 -6q24 -95 68 -160
t97 -82v248zM530 -133q53 15 97 80t68 161q-77 6 -165 7v-248zM530 178q95 -1 178 -8q10 64 10 130q0 52 -6 102q-84 -7 -182 -8v-216zM892 493q-34 70 -90.5 124t-127.5 85q64 -90 91 -232q85 10 127 23zM351 712q-81 -30 -144.5 -87.5t-100.5 -134.5q49 -12 130 -21
q34 149 115 243zM82 432q-20 -64 -20 -132q0 -81 30 -158q52 13 137 23q-12 66 -12 135q0 54 7 108q-91 10 -142 24zM119 85q39 -68 98.5 -119t133.5 -78q-73 85 -109 215q-72 -7 -123 -18zM674 -102q133 58 205 184q-48 12 -120 20q-28 -124 -85 -204z" />
    <glyph glyph-name="E" unicode="E" 
d="M893 612q28 0 67.5 -29t39.5 -54v-665q0 -24 -38 -43.5t-69 -19.5h-829q-27 0 -45.5 18.5t-18.5 44.5v380v55v250q0 26 18.5 44.5t45.5 18.5h254v93q0 39 28 67t67 28h192q38 0 58.5 -27t20.5 -68v-93h209zM382 705v-93h254v93q0 13 -9 22.5t-22 9.5h-192q-13 0 -22 -9.5
t-9 -22.5zM54 549v-250h359v41q0 26 19 44.5t45 18.5h63q27 0 45.5 -18.5t18.5 -44.5v-41h332v250h-882zM540 180v160h-63v-160h63zM54 -136h882v380h-332v-64q0 -26 -18.5 -45t-45.5 -19h-63q-26 0 -45 19t-19 45v64h-359v-380z" />
    <glyph glyph-name="F" unicode="F" 
d="M968 120q31 -18 34 -52q0 -27 -18 -45t-44 -18t-44 18t-18 45q0 35 30 52v220l-128 -68q2 -4 2 -12v-270q0 -17 -12 -25q-82 -55 -272 -55q-184 0 -270 58q-10 10 -10 22v265q0 5 4 15l-204 110q-18 9 -18 28q0 20 15 27l470 253q15 7 30 0l470 -253q15 -7 15 -27
q0 -19 -18 -28l-14 -8v-252zM718 8h2v234l-208 -110q-4 -2 -14 -2q-6 0 -16 5l-202 107v-232q68 -38 218 -38t220 36zM498 195l407 215l-405 215l-402 -215z" />
    <glyph glyph-name="G" unicode="G" 
d="M905 557q38 0 66.5 -33t28.5 -74v-510q0 -41 -25 -72.5t-63 -31.5h-833q-38 0 -58.5 27t-20.5 69l1 596l-1 11q0 11 0.5 15.5t1.5 15.5t6 17l10 15q6 8 17.5 14t25.5 10l737 143l7 1q39 0 67.5 -28t28.5 -68l-8 -117h12zM808 706l-727 -131q-1 -1 1.5 -5t10 -8.5
t18.5 -4.5h726v117q0 13 -8.5 22t-20.5 10zM957 -68v530q0 13 -9.5 22t-22.5 9h-814q-25 0 -44.5 8.5t-19.5 23.5v-593q0 -13 9.5 -22.5t22.5 -9.5h846q13 0 22.5 9.5t9.5 22.5zM836.5 259q26.5 0 45 -19t18.5 -45.5t-18.5 -45t-45 -18.5t-45.5 18.5t-19 45t19 45.5t45.5 19
z" />
    <glyph glyph-name="H" unicode="H" 
d="M504 800q86 0 157 -30.5t117.5 -83t72 -121.5t25.5 -146q0 -235 -313 -594q-25 -25 -50 -25h-2q-12 0 -24.5 6.5t-18 11.5t-6.5 7q-6 6 -18 20l-60 70l-61 74q-39 49 -62 82.5t-52.5 82t-45.5 88.5t-27.5 87t-11.5 90q0 101 52 189t139.5 140t188.5 52zM516 -133
q297 341 297 552q0 61 -19 116.5t-55.5 101.5t-97 73t-137.5 27q-85 0 -158 -43t-116 -117t-43 -158q0 -39 11 -81t26 -79t43 -82t50 -77t59 -77l58 -70l58 -67l16 -19q2 -2 4 -3q2 1 4 3zM501 611q78 0 133 -55t55 -132.5t-55 -132.5t-133 -55t-133 55t-55 132.5t55 132.5
t133 55zM501 298q52 0 88 37.5t36 89.5q0 51 -37 88t-88.5 37t-88.5 -37t-37 -88.5t37.5 -89t89.5 -37.5z" />
    <glyph glyph-name="I" unicode="I" 
d="M503 772l-23 45l-22 -45l-143 -288l-319 -47l-50 -7l37 -35l230 -224l-54 -317l-9 -50l45 24l285 149l285 -149l45 -24l-8 50l-55 317l231 224l36 35l-50 7l-319 47zM480 704l126 -254l6 -12l13 -2l282 -41l-204 -198l-10 -9l3 -13l48 -279l-252 132l-12 6l-11 -6
l-252 -132l48 279l2 13l-10 9l-203 198l281 41l13 2l6 12z" />
    <glyph glyph-name="J" unicode="J" 
d="M728 -15l15 -7q9 -5 23.5 -18.5t14.5 -27.5v-79q0 -22 -15.5 -37.5t-36.5 -15.5h-676q-22 0 -37.5 15.5t-15.5 37.5v79q0 8 5.5 16.5t13 14.5t15.5 11l13 8l6 3l202 109q-50 40 -74.5 109t-24.5 124v132q0 43 34.5 86t89.5 71t112 28t111.5 -28t88 -71t33.5 -86v-132
q0 -60 -22 -127.5t-71 -106.5zM719 -138v57q-7 5 -15 8q-3 2 -5 3l-197 109q-30 16 -32.5 49.5t23.5 53.5q36 29 52.5 83.5t16.5 101.5v132q0 38 -53 80t-117 42q-63 0 -118 -42.5t-55 -79.5v-132q0 -44 19.5 -100t55.5 -84q26 -21 23 -54.5t-33 -49.5l-202 -109l-4 -2
q-7 -4 -16 -10v-56h657zM947 140q6 -2 15 -6.5t23.5 -18.5t14.5 -28v-78q0 -22 -15.5 -37.5t-37.5 -15.5h-103q-5 18 -8 26.5t-9.5 19t-15.5 17.5h127v55q-8 6 -15 9q-4 2 -6 2l-199 109q-30 16 -32.5 49.5t23.5 54.5q36 29 54 84t18 101v132q0 37 -54.5 80t-118.5 43
q-67 0 -120 -41q-18 5 -78 9q35 41 89 67.5t109 26.5q56 0 111.5 -28t89.5 -71.5t34 -86.5v-131q0 -59 -23 -127t-72 -107z" />
    <glyph glyph-name="K" unicode="K" 
d="M0 -143q2 49 50 71l108 52l135 62q25 11 36.5 28.5t17.5 45.5q2 12 4 15q3 2 7 6l8 6q4 2 4 5q4 48 -1 76q-1 10 -10 27t-11 22q-6 15 -27 57q-5 10 -9 23.5t-5.5 22.5t-4 26.5t-3.5 23.5q-1 3 1 6l7 8q5 6 7 9q-32 78 -17 195q49 -10 85 37q24 31 70 45.5t93 9.5t74 -28
q64 -54 88 -118q19 -50 -4 -126q-1 -4 -1 -33q-1 -76 -31 -113q-2 -4 -9 -20q-2 -5 -5.5 -17t-7 -21t-8.5 -16q-13 -19 -14.5 -44t2.5 -45q2 -14 5 -15q12 -3 16.5 -9.5t6.5 -20t3 -16.5q10 -35 42 -49l254 -119q50 -23 43 -69h-999z" />
    <glyph glyph-name="L" unicode="L" 
d="M970 343q30 -19 30 -54t-30 -53l-495 -308q-16 -9 -34 -9q-17 0 -31 7q-33 19 -33 55v130l-292 -183q-15 -9 -30 -9q-14 0 -28 7q-27 16 -27 55v616q0 40 27 55q14 8 25 8q17 0 32 -9l292 -183v129q0 36 34 55q14 8 32 8t33 -9zM439 -19l496 308l-496 308v-242l-376 242
v-616l376 243v-243z" />
    <glyph glyph-name="M" unicode="M" 
d="M931 37.5q2 -7.5 2 -18.5t-4 -21q-15 -31 -78 -31h-184q0 -69 -49 -118t-119 -49t-119 49t-49 118h-178q-65 0 -82 33q-4 8 -4 19t2 19.5t9 22.5q8 14 14 21q1 2 4.5 6t6.5 8.5t7 9.5q2 4 21 28q20 24 27 36q7 11 18.5 31t16.5 39t5 36v204q0 134 87.5 227t213 93
t213.5 -93t88 -227v-203q0 -67 86 -173q14 -16 20 -24l15 -21q8 -14 10 -21.5zM570.5 -105.5q29.5 29.5 29.5 72.5h-202q0 -43 29.5 -72.5t71.5 -29.5t71.5 29.5zM851 33h6q-6 10 -24 28q-100 125 -100 215v204q0 106 -68.5 179.5t-166.5 73.5t-165.5 -73.5t-67.5 -179.5
v-204q0 -21 -5 -42.5t-11 -37t-21 -39.5t-21 -31l-24 -33q-18 -25 -20 -26q-16 -24 -24 -34h14h698z" />
    <glyph glyph-name="N" unicode="N" 
d="M984 301q9 -9 8.5 -22t-9.5 -22q-9 -8 -21 -8q-13 0 -22 9l-42 44v-461q0 -13 -9 -22t-21 -9h-215q-13 0 -22 9t-9 22v307h-245l-1 -307q0 -13 -9 -22t-22 -9h-215q-13 0 -22 9t-9 22v460l-41 -43q-9 -9 -21.5 -9t-22 8.5t-9.5 21.5t9 22l464 483q9 10 22 10t22 -10z
M837 357v-485h-154v307q0 13 -9 22t-21 9h-307q-13 0 -22 -9t-9 -22l-1 -307h-153v485q0 4 -1 7l340 355l338 -354q-1 -4 -1 -8z" />
    <glyph glyph-name="O" unicode="O" 
d="M979 561q17 -9 17 -28t-16 -28l-470 -252q-7 -4 -14.5 -4t-14.5 4l-465 253q-16 8 -16 27t17 28l469 236q15 7 29 0zM496 316l401 216l-397 202l-401 -202zM979 331q17 -9 17 -27.5t-16 -27.5l-470 -253q-7 -4 -14.5 -4t-14.5 4l-465 253q-16 9 -16 28t17 27l98 49
l67 -36l-83 -42l397 -216l401 216l-78 40l67 36zM979 112q17 -9 17 -27.5t-16 -27.5l-470 -253q-7 -4 -14.5 -4t-14.5 4l-465 253q-16 9 -16 28t17 27l92 43l67 -37l-77 -35l397 -216l401 216l-73 36l67 36z" />
    <glyph glyph-name="P" unicode="P" 
d="M480 760l149 -299l331 -48l-240 -234l57 -329l-297 156l-297 -156l57 329l-240 234l332 48z" />
    <glyph glyph-name="Q" unicode="Q" 
d="M990 522l-620 -584q-11 -11 -25 -11t-25 11l-11 10l-12 12l-51 52q0 1 -1 1l-235 237q-10 10 -10 24.5t10 24.5l74 74q11 10 25.5 10t24.5 -10l211 -213l521 486q10 10 24.5 10t25.5 -10l74 -74q10 -11 10 -25.5t-10 -24.5z" />
    <glyph glyph-name="R" unicode="R" 
d="M1000 733l-434 -433l434 -433l-67 -67l-433 434l-433 -434l-67 67l433 433l-433 433l67 67l433 -433l433 433z" />
    <glyph glyph-name="S" unicode="S" 
d="M627 180q0 -22 15 -64.5t44 -58.5q22 -19 76 -41t102.5 -39.5t89.5 -48t46 -67.5h-1000q1 5 2.5 15t2.5 15q16 30 49 52.5t70.5 35t79.5 29.5t76.5 35t60 53.5t32.5 83.5q-39 2 -69 14.5t-64 34.5q24 37 36 92.5t16.5 108.5t12 106.5t30 99.5t62.5 73q25 17 67 23.5
t80 -3.5q55 -16 89.5 -55.5t50 -96t23.5 -113t19.5 -125.5t28.5 -115q-10 -4 -35.5 -16.5t-46 -19t-46.5 -8.5z" />
    <glyph glyph-name="T" unicode="T" 
d="M977 430l12 -10q11 -9 11 -21.5t-11 -21.5l-450 -362h-1l-12 -11q-11 -9 -26 -8q-15 -1 -26 8l-12 11h-1l-450 362q-11 9 -11 21.5t11 21.5l12 10q11 9 26 9t25 -9l426 -341l426 341q10 9 25 9t26 -9zM461 126l-450 362q-11 9 -11 21.5t11 21.5l12 10q11 9 26 9t25 -9
l426 -341l426 341q10 9 25 9t26 -9l12 -10q11 -9 11 -21.5t-11 -21.5l-450 -362h-1l-12 -11q-11 -9 -26 -9t-26 9l-12 11h-1z" />
    <glyph glyph-name="U" unicode="U" 
d="M1000 488v-187h-62v-406q0 -26 -18.5 -44.5t-44.5 -18.5h-749q-26 0 -44.5 18.5t-18.5 44.5v406h-63v187q0 26 18.5 44t43.5 18h110q-47 45 -47 107q0 47 29 80t89 33q41 0 82 -19.5t74.5 -51t58 -60.5t44.5 -60q20 32 43.5 60t57 60.5t74 51.5t81.5 19q60 0 89 -33
t29 -80q0 -62 -46 -107h108q25 0 43.5 -18t18.5 -44zM758 708q-36 0 -77 -27t-69 -59.5t-55 -71.5h106q60 0 105.5 29t45.5 78q0 51 -56 51zM243 708q-29 0 -42.5 -12t-13.5 -38q0 -49 47 -78.5t106 -29.5h106q-41 62 -96 110t-107 48zM938 488h-407v-124h407v124zM62 488
v-124h407v124h-407zM126 301v-406h343v406h-343zM875 -105v406h-344v-406h344z" />
    <glyph glyph-name="V" unicode="V" 
d="M996 -20q10 -18 -2 -34q-13 -16 -32 -12l-157 36l-53 -149q-7 -19 -27 -21h-3q-18 0 -27 16l-163 298q-18 -1 -32 -1q-18 0 -35 1l-160 -297q-9 -17 -27 -17h-3q-20 2 -27 21l-53 149l-157 -36q-19 -4 -32 12q-12 16 -2 34l183 335q-30 67 -30 141q0 94 46 173t125 125
t172 46t172 -46t125 -125t46 -173q0 -72 -29 -138zM283 -92l118 219q-109 33 -177 125l-132 -241l116 27q11 2 21.5 -3.5t14.5 -16.5zM500 176q116 0 198 82t82 198.5t-82 198.5t-198 82t-198.5 -82t-82.5 -198.5t82.5 -198.5t198.5 -82zM792 38l117 -27l-132 243
q-69 -95 -181 -127l120 -220l40 111q4 11 14.5 16.5t21.5 3.5zM500 586q59 0 101 -42t42 -101t-42 -101t-101 -42t-101 42t-42 101t42 101t101 42z" />
    <glyph glyph-name="W" unicode="W" 
d="M996 -20q10 -18 -2 -34q-13 -16 -32 -12l-157 36l-53 -149q-7 -19 -27 -21h-3q-18 0 -27 16l-163 298q-18 -1 -32 -1q-18 0 -35 1l-160 -297q-9 -17 -27 -17h-3q-20 2 -27 21l-53 149l-157 -36q-20 -4 -32 12t-2 34l183 335q-30 67 -30 141q0 94 46 173t125 125t172 46
t172 -46t125 -125t46 -173q0 -72 -29 -138zM283 -92l118 219q-109 33 -177 125l-132 -241l116 27q11 2 21.5 -3.5t14.5 -16.5zM219 456.5q0 -116.5 82.5 -198.5t198.5 -82t198 82t82 198.5t-82 198.5t-198 82t-198.5 -82t-82.5 -198.5zM792 38l117 -27l-132 243
q-69 -95 -181 -127l120 -220l40 111q4 11 14.5 16.5t21.5 3.5z" />
    <glyph glyph-name="X" unicode="X" 
d="M925 197l75 73v-363q0 -30 -22 -53q-23 -22 -53 -22h-850q-30 0 -52.5 22.5t-22.5 52.5v786q0 33 22 54q22 22 53 22h377l2 -3l-75 -73h-304v-786h850v290zM999 770v-318q0 -17 -11 -27.5t-27 -10.5q-37 1 -38 39l1 195l2 2l-547 -555q-18 -11 -37 8q-9 9 -11 18t0 14
l2 5l546 555l-5 -4l-203 1q-39 2 -38 38.5t39 37.5z" />
    <glyph glyph-name="Y" unicode="Y" 
d="M456 780l10 12q9 11 21.5 11t21.5 -11l362 -450v-1l11 -12q9 -11 8 -26q1 -15 -8 -26l-11 -12v-1l-362 -450q-9 -11 -21.5 -11t-21.5 11l-10 12q-9 11 -9 26t9 25l341 426l-341 426q-9 10 -9 25t9 26zM760 264l-362 -450q-9 -11 -21.5 -11t-21.5 11l-10 12q-9 11 -9 26
t9 25l341 426l-341 426q-9 10 -9 25t9 26l10 12q9 11 21.5 11t21.5 -11l362 -450v-1l11 -12q9 -11 9 -26t-9 -26l-11 -12v-1z" />
    <glyph glyph-name="Z" unicode="Z" 
d="M909 700q76 0 89 -67q4 -19 2 -21l-454 -724q-16 -24 -46 -24q-13 0 -24.5 5.5t-16.5 10.5l-4 6l-455 726q2 1 0 9.5t3.5 21.5t13 26t27 22t47.5 9h818zM505 -29l388 655l-786 -6z" />
    <glyph glyph-name="bracketleft" unicode="[" 
d="M514 512q-7 0 -12 2.5t-5 6.5v59q0 4 5 7t12 3h244q8 0 13 -3t5 -7v-59q0 -4 -5 -6.5t-13 -2.5h-244zM393 126q7 0 12 -5t5 -13q0 -6 -5 -13l-174 -173q-5 -5 -13 -5q-6 0 -12 5l-174 174q-8 8 -4 19t16 11l136 -125v658q0 8 5 13t13 5h41q8 0 13 -5t5 -13v-658z
M979.5 137q4.5 -3 4.5 -8v-64q0 -4 -4.5 -7t-12.5 -3h-453q-7 0 -12 3t-5 7v64q0 5 5 8t12 3h453q8 0 12.5 -3zM514 287q-7 0 -12 3t-5 8v66q0 5 5 8t12 3h349q7 0 12 -3t5 -8v-66q0 -5 -5 -8t-12 -3h-349z" />
    <glyph glyph-name="backslash" unicode="\" 
d="M500 -195q-102 0 -194.5 39.5t-159.5 106.5t-106.5 159.5t-39.5 194.5t39.5 194.5t106.5 159.5t159.5 106.5t194.5 39.5t194.5 -39.5t159.5 -106.5t106.5 -160t39.5 -194.5t-39.5 -194t-106.5 -159.5t-159.5 -106.5t-194.5 -39.5zM500 755q-91 0 -174.5 -35.5t-144 -96
t-96 -144t-35.5 -174.5t35.5 -174.5t96 -144t144 -96t174.5 -35.5t174.5 35.5t144 96t96 144t35.5 174.5t-35.5 174.5t-96 144t-144 96t-174.5 35.5zM540 220h-79v314h79v-314zM540 60h-79v76h79v-76z" />
    <glyph glyph-name="a" unicode="a" 
d="M661 702q43 0 87 10t75.5 23.5t56.5 27t38 22.5l13 10v-524q-4 -4 -12.5 -10t-35.5 -22t-55.5 -28t-72 -22t-86.5 -10q-51 0 -101 14t-86 31.5t-94.5 32t-124.5 14.5q-71 0 -133 -40v-393q0 -13 -9 -22t-22 -9t-22 9t-9 22v862q3 4 9 10.5t26 22.5t42 28.5t56.5 23
t69.5 10.5q54 0 100 -9.5t79 -23.5l63 -26q30 -14 68 -24t80 -10zM869 302v386q-104 -47 -208 -47q-39 0 -77.5 8t-59.5 16t-57 23.5t-56.5 23t-59 14.5t-80.5 7q-77 0 -141 -58v-373q63 31 133 31q54 0 104.5 -9.5t76.5 -19.5l71 -26q33 -14 51 -20t46 -12t57 -6
q105 0 200 62z" />
    <glyph glyph-name="b" unicode="b" 
d="M693 795q38 0 65.5 -27t27.5 -66v-802q0 -38 -27.5 -65t-65.5 -27h-370q-39 0 -66 27t-27 65v802q0 39 27 66t66 27h370zM724 -100v802q0 13 -9 22t-22 9h-370q-13 0 -22 -9t-9 -22v-802q0 -13 9 -22t22 -9h370q13 0 22 9t9 22zM507.5 23q25.5 0 43.5 -18t18 -43.5
t-18 -43.5t-43.5 -18t-43.5 18t-18 43.5t18 43.5t43.5 18zM570 702q12 0 21 -9t9 -21.5t-9 -21.5t-21 -9h-124q-13 0 -22 9t-9 21.5t9 21.5t22 9h124z" />
    <glyph glyph-name="c" unicode="c" 
d="M476 176q-21 0 -28 20q-4 12 1 23t17 15q66 24 116 106t50 168q0 91 -61 155t-147.5 64t-147.5 -64t-61 -155q0 -86 50 -168t116 -106q12 -4 17.5 -15t1 -23t-15.5 -17.5t-23 -0.5q-59 21 -107.5 76.5t-73.5 123t-25 130.5q0 116 78.5 197.5t190 81.5t190 -81.5
t78.5 -197.5q0 -63 -25 -130.5t-73.5 -123t-107.5 -76.5q-5 -2 -10 -2zM646 147q-72 24 -171 29l3 60q107 -5 187 -32zM539 -106h-504q-12 0 -21 8.5t-9 21.5v135q0 5 2 10q2 8 8.5 19.5t32.5 37.5t62 47t105 40t155 23l3 -60q-66 -3 -120.5 -15.5t-86 -27t-55.5 -32.5
t-32.5 -28.5t-13.5 -19.5v-99h474v-60zM824 -116q-70 0 -119.5 49.5t-49.5 119t49.5 119t119.5 49.5t119 -49.5t49 -119t-49 -119t-119 -49.5zM824 161q-45 0 -76.5 -32t-31.5 -76.5t31.5 -76.5t76.5 -32t76.5 32t31.5 76.5t-31.5 76.5t-76.5 32zM614.5 -187q-12.5 0 -21 9
t-8.5 21.5t9 21.5l111 111q9 9 21.5 9t21 -9t8.5 -21.5t-9 -21.5l-111 -111q-9 -9 -21.5 -9z" />
    <glyph glyph-name="d" unicode="d" 
d="M964 -194q-12 0 -21 9l-304 303q-8 9 -8 21.5t8.5 21t21 8.5t21.5 -8l303 -304q9 -9 9 -21t-9 -21t-21 -9zM399.5 1q-108.5 0 -200.5 53.5t-145.5 145.5t-53.5 200.5t53.5 200.5t145.5 145.5t200.5 53.5t200.5 -53.5t145.5 -145.5t53.5 -200.5t-53.5 -200.5
t-145.5 -145.5t-200.5 -53.5zM400 740q-92 0 -170.5 -45.5t-124 -124t-45.5 -170.5t45.5 -170t124 -123.5t170.5 -45.5t170 45.5t123.5 123.5t45.5 170t-45.5 170.5t-123.5 124t-170 45.5z" />
    <glyph glyph-name="e" unicode="e" 
d="M934 712q25 0 43.5 -18t18.5 -44v-713q0 -25 -18.5 -43.5t-43.5 -18.5h-868q-26 0 -44 18.5t-18 43.5v713q0 26 18 44t44 18h868zM934 -63v58q-1 0 -1.5 0.5t-1.5 0.5l-204 210l-113 -103q-11 -8 -22.5 -8t-20.5 10l-256 256l-249 -241v-183h868zM934 83v567h-868v-444
l226 221q10 9 24 8q13 -1 22 -11l256 -254l117 102q9 7 20.5 6t20.5 -9zM716.5 402q-25.5 0 -43.5 18t-18 43.5t18 44t43.5 18.5t43.5 -18.5t18 -44t-18 -43.5t-43.5 -18z" />
    <glyph glyph-name="f" unicode="f" 
d="M638 493h-66q-10 0 -19 -8t-9 -16v-70h94q-1 -23 -4 -48t-5 -38l-2 -13h-83v-296h-121v296h-61v99h61v83q0 10 0.5 18t7 28.5t18.5 34t38 24.5t63 11h91v-105h-3z" />
    <glyph glyph-name="g" unicode="g" 
d="M623 585q2 0 2 -3q-1 2 -2 2v1l-39 -27h-3h-44q53 -44 53 -102q0 -9 -1.5 -17t-2.5 -14.5t-4.5 -13.5l-5.5 -11t-7 -10.5t-7 -9.5t-8 -9t-8 -7.5t-9 -8t-8 -7.5q-19 -19 -19 -36q0 -4 1 -7.5t2 -6t3.5 -6t3.5 -4.5l4.5 -4.5l4.5 -4.5l27 -22q18 -15 24 -21t17.5 -20.5
t15.5 -29.5t4 -33q0 -58 -51 -99.5t-139 -41.5q-75 0 -116 32t-41 76q0 59 55 90q53 34 135 34h3v2q-19 24 -19 50q0 11 5 27v3q-4 0 -12 -1.5t-10 -1.5q-55 0 -88 36t-33 83q0 27 12 54t35 45q52 44 137 44h133zM562 125q0 27 -17.5 47.5t-62.5 51.5h-14q-44 0 -77 -11
q-63 -25 -63 -77q0 -41 35 -66t92 -25q49 0 78 21.5t29 58.5zM510 370q19 20 19 55q-3 47 -28.5 91t-65.5 44q-29 0 -49 -24q-17 -21 -17 -56q0 -26 9 -55t31 -53t51 -24q28 0 50 22zM818 285q0 -3 -3 -3h-74v-74q0 -3 -3 -3h-33q-3 0 -3 3v74h-74q-3 0 -3 3v33q0 3 3 3h74
v74q0 3 3 3h33q3 0 3 -3v-74h74q3 0 3 -3v-33z" />
    <glyph glyph-name="h" unicode="h" 
d="M577 -196h-182v452h-153v177h152v130q0 111 62 172t165 61q83 0 137 -6v-158h-94q-51 0 -69 -22t-18 -64v-113h175l-23 -177h-152v-452z" />
    <glyph glyph-name="i" unicode="i" 
d="M507 399h479q6 -41 6.5 -84t-5.5 -88.5t-18.5 -89.5t-33 -86.5t-48 -79.5t-66 -68.5t-84 -54.5t-104.5 -35.5t-126 -12.5q-102 0 -194 39.5t-159 106.5t-106.5 159.5t-39.5 194.5t39.5 194.5t106.5 159.5t159 106.5t194 39.5q95 0 181.5 -34t154.5 -96
q-62 -59 -99.5 -99.5t-42.5 -46.5q-43 36 -88.5 54.5t-105.5 18.5q-122 0 -207 -87t-85 -210.5t85 -210t207 -86.5q79 0 132.5 23.5t84 65t53.5 109.5h-270v198z" />
    <glyph glyph-name="j" unicode="j" 
d="M500 -195q-102 0 -194.5 39.5t-159.5 106.5t-106.5 159.5t-39.5 194.5t39.5 194.5t106.5 159.5t159.5 106.5t194.5 39.5t194.5 -39.5t159.5 -106.5t106.5 -160t39.5 -194.5t-39.5 -194t-106.5 -159.5t-159.5 -106.5t-194.5 -39.5zM500 755q-91 0 -174.5 -35.5t-144 -96
t-96 -144t-35.5 -174.5t35.5 -174.5t96 -144t144 -96t174.5 -35.5t174.5 35.5t144 96t96 144t35.5 174.5t-35.5 174.5t-96 144t-144 96t-174.5 35.5zM540 220h-79v314h79v-314zM540 60h-79v76h79v-76z" />
    <glyph glyph-name="k" unicode="k" 
d="M727 240q3 -5 3 -10q0 -6 -3 -11l-134 -207h64q28 0 47.5 -20t19.5 -47v-56q0 -27 -19.5 -47t-47.5 -20h-567q-27 0 -47 20t-20 47v56q0 28 19.5 47.5t47.5 19.5h64l-134 208q-3 4 -3 9.5t3 10.5l338 523q6 8 15.5 8t15.5 -8zM687 -57l1 2q-1 12 -9.5 20t-20.5 8h-1h-567
q-12 0 -21 -8.5t-9 -21.5v-55q0 -13 9 -21.5t21 -8.5h567q13 0 21.5 8.5t8.5 21.5v55zM549 10l140 219l-297 460v-228q0 -8 -5.5 -13t-13 -5t-13 5t-5.5 13v228l-297 -459l141 -220h350zM374 378q54 0 93 -39t39 -93v-2q-1 -54 -39.5 -92t-92.5 -38q-55 0 -93.5 38.5
t-38.5 93t38.5 93.5t93.5 39zM374 151v0q38 0 66 27.5t29 65.5v2q0 39 -28 66.5t-67 27.5t-67 -27.5t-28 -67t28 -67t67 -27.5z" />
    <glyph glyph-name="l" unicode="l" 
d="M193 2v403h136v-403h-136zM260 460q-35 0 -55 19.5t-20 49.5t21.5 49.5t55.5 19.5q35 0 55 -19.5t20 -49.5q0 -29 -21.5 -49t-55.5 -20zM815 2h-135v215q0 91 -70 91q-26 0 -44 -14t-25 -35q-5 -17 -5 -34v-226h-135q2 367 0 403h135v-58q40 66 121 66q70 0 112.5 -46
t42.5 -136v-226h3zM536 347zM536 347z" />
    <glyph glyph-name="m" unicode="m" 
d="M920 732q53 -48 60 -116q0 -60 -56 -116q-66 -66 -324 -318.5t-276 -265.5q-8 -8 -12 -8q-252 -84 -256 -84h-8q-12 0 -20 8q-14 14 -8 32q3 0 36.5 110.5t43.5 149.5q0 4 8 12q576 576 588 592q52 52 116 52q60 0 108 -48zM880 544q39 39 32 72q0 32 -36 68
q-32 32 -64 32q-40 0 -72 -32q-5 -7 -132.5 -134.5t-287 -286t-164.5 -163.5q-5 -18 -16.5 -53.5t-26 -81.5t-21.5 -69q38 12 118 39.5t82 28.5q48 45 306.5 299.5t281.5 280.5z" />
    <glyph glyph-name="n" unicode="n" 
d="M922 755q28 0 47.5 -20t20.5 -49v-776q0 -26 -17.5 -45.5t-43.5 -21.5h-752q-29 1 -47.5 3.5t-23.5 4.5l-4 2q-37 12 -56 39q-13 20 -22 40q-5 12 -8.5 31.5t-4.5 32.5v13v497q13 69 80 69h107q14 0 15 20v91q0 29 19.5 49t47.5 20h642zM216 69v432v9q0 18 -13 20h-1h-2
h-15h-33h-41q-25 0 -38 -20.5t-13 -41.5l-1 -21q-1 -363 -2 -403q0 -48 20 -93v-1q1 -2 1 -3t4 -7v-1q1 -1 1 -2t1 -1q9 -17 20 -28q25 -20 73 -12q11 3 15 15q5 11 8.5 26t5.5 25l1 9q1 2 1.5 5t0.5 4q7 69 7 89zM943 -46v695q0 25 -17.5 43t-41.5 18h-563q-25 0 -42.5 -18
t-17.5 -43v-603v-4v-12q-2 -32 -8 -66q-1 -1 -1 -2q0 -2 -1 -7q-6 -27 -7 -44q1 -17 19 -17q24 -1 57 -1h564q24 0 41.5 18t17.5 43zM381 552h444l3 1q3 0 8 -1l9 -3q4 -2 7 -7.5t3 -12.5q0 -6 -1 -10t-8.5 -8t-21.5 -4h-443q-2 0 -6 1t-10.5 7t-5.5 14q0 23 22 23zM381 437
h444l3 1q3 0 7.5 -1.5t9 -3.5t7.5 -7t3 -12q0 -6 -1 -10t-8.5 -8t-21.5 -4h-443q-2 0 -6 1t-10.5 7t-5.5 14q0 23 22 23zM378 322h443q0 -1 3 -0.5t7.5 -0.5t9 -3t8 -7t3.5 -12t-1.5 -11t-9 -8t-21.5 -4h-442q-3 0 -7 1t-10.5 7t-5.5 15q1 23 23 23zM378 210h443l3 1
q3 0 7 -1l9 -3q5 -2 8.5 -7t3.5 -12t-1.5 -11t-9 -8t-21.5 -4h-442q-3 0 -7 1t-10.5 7t-5.5 15q1 22 23 22zM378 94h443l3 1q3 0 7 -1l9 -3q5 -2 8.5 -7t3.5 -13q0 -6 -1.5 -10t-9 -8t-21.5 -4h-442q-3 0 -7 1t-10.5 7t-5.5 14q1 23 23 23z" />
    <glyph glyph-name="p" unicode="p" 
d="M500 530q18 0 28.5 -10.5t10.5 -28.5v-236q0 -15 -11 -27t-28 -12q-18 0 -28.5 10.5t-10.5 28.5v236q0 15 11 27t28 12zM538 101q0 -16 -11.5 -27t-27.5 -11t-27 11t-11 27t11 27.5t27 11.5t27.5 -11.5t11.5 -27.5zM980 78q32 -55 10 -93.5t-88 -38.5h-810
q-63 0 -84 38.5t11 93.5l418 681q26 41 62 41t62 -41zM914 -15q31 0 42.5 20t-3.5 46l-426 692q-12 18 -27 18t-24 -18l-426 -692q-18 -26 -7.5 -46t42.5 -20h829z" />
    <glyph glyph-name="r" unicode="r" 
d="M186.5 145q64.5 0 110 -46t45.5 -110.5t-45.5 -110.5t-110 -46t-110.5 46t-46 110.5t46 110.5t110.5 46zM30 301v157q127 0 243 -50t199.5 -133.5t133 -199t49.5 -243.5h-156q0 96 -37 183t-100 149.5t-150 99.5t-182 37zM30 614v156q127 0 249 -33.5t224.5 -94t189 -147
t147 -189.5t94.5 -224.5t34 -249.5h-157q0 159 -61.5 304t-166.5 249.5t-249.5 166.5t-303.5 62z" />
    <glyph glyph-name="t" unicode="t" 
d="M731 420v-17q0 -60 -22.5 -119.5t-64 -109t-107.5 -80t-146 -30.5q-102 0 -182 54q4 0 14 -1.5t16 -1.5q85 0 150 52q-39 0 -70.5 23.5t-41.5 60.5q8 -3 22 -3q11 0 33 6q-41 8 -68.5 41t-27.5 76v2q24 -12 55 -16q-55 36 -55 101q0 35 17 59q45 -55 108.5 -88t138.5 -37
q-3 9 -3 28q0 48 35.5 83.5t84.5 35.5q53 0 87 -38q35 7 76 30q-13 -44 -52 -65q39 4 68 19q-37 -47 -65 -65z" />
    <glyph glyph-name="u" unicode="u" 
d="M562 81q13 0 22.5 -9t9.5 -22t-9.5 -22t-22.5 -9h-124q-13 0 -22.5 9t-9.5 22t9.5 22t22.5 9h31v250h-31q-13 0 -22.5 9.5t-9.5 22t9.5 22t22.5 9.5h62q13 0 22 -9.5t9 -22.5v-1v-280h31zM500 456q-26 0 -44 18.5t-18 44.5t18 44t44 18t44 -18t18 -44t-18 -44.5
t-44 -18.5zM500 800q136 0 251 -67t182 -182t67 -251t-67 -251t-182 -182t-251 -67t-251 67t-182 182t-67 251t67 251t182 182t251 67zM500 -138q89 0 170 34.5t139.5 93.5t93.5 140t35 170t-35 170t-93.5 139.5t-139.5 93.5t-170 35t-170 -35t-139.5 -93.5t-93.5 -139.5
t-35 -170t35 -170t93.5 -140t139.5 -93.5t170 -34.5z" />
    <glyph glyph-name="v" unicode="v" 
d="M492 800q100 0 191.5 -39t157 -105t104.5 -157t39 -191t-39 -191.5t-104.5 -157t-157 -104.5t-191.5 -39t-191 39t-157 104.5t-105 157t-39 191.5t39 191t105 157t157 105t191 39zM492 -124q117 0 216 58t157 157.5t58 216.5t-58 216t-157 156.5t-216 57.5t-216 -57.5
t-156.5 -156.5t-57.5 -216t57.5 -216.5t156.5 -157.5t216 -58zM689 488q9 9 21.5 9t21.5 -9t9 -22t-9 -22l-306 -308q-2 -3 -4 -4q-9 -9 -21.5 -9t-21.5 9l-153 152q-9 9 -9 21.5t9 21.5t22 9t22 -9l130 -130z" />
    <glyph glyph-name="w" unicode="w" 
d="M493 800q100 0 191 -39t157 -105t104.5 -157t38.5 -191t-39 -191.5t-104.5 -157t-157 -104.5t-191.5 -39t-191 39t-156.5 104.5t-104.5 157t-39 191.5t39 191t105 157t157 105t191 39zM62 308q0 -117 57.5 -216.5t156.5 -157.5t216 -58q161 0 283 107l-608 607
q-105 -122 -105 -282zM818 26q106 123 106 282q0 117 -58 216t-157 156.5t-216 57.5q-161 0 -282 -104z" />
    <glyph glyph-name="x" unicode="x" 
d="M781 425q52 0 88.5 -36.5t36.5 -88.5v-375q0 -52 -36.5 -88.5t-88.5 -36.5h-562q-52 0 -88.5 36.5t-36.5 88.5v375q0 52 36.5 88.5t88.5 36.5h31v119q0 108 70 182t179 74t180 -73.5t71 -182.5v-119h31zM312 544v-119h376v119q0 83 -53 138.5t-136 55.5t-135 -56
t-52 -138zM844 -75v375q0 26 -18.5 44t-44.5 18h-562q-26 0 -44.5 -18t-18.5 -44v-375q0 -26 18.5 -44.5t44.5 -18.5h562q26 0 44.5 18.5t18.5 44.5zM500 238q26 0 44 -18.5t18 -44.5q0 -34 -31 -53v-103q0 -13 -9 -22t-22 -9t-22 9t-9 22v103q-31 19 -31 53q0 26 18 44.5
t44 18.5z" />
    <glyph glyph-name="y" unicode="y" 
d="M62 -74v-63h688v-63h-688q-26 0 -44 18.5t-18 44.5v93q0 8 3.5 15t9 13t12 11.5t13 10t12 7.5t9.5 4l3 2l275 130q-59 47 -89 129.5t-30 146.5v156q0 51 41.5 102t107.5 84t133 33t133 -33t107 -84t41 -102v-156q0 -69 -28.5 -150t-87.5 -127l83 -39l-15 -62l-94 44
q-32 15 -36 49.5t23 56.5q46 36 69 104.5t23 123.5v156q0 33 -32 69.5t-83.5 61.5t-102.5 25t-103 -25t-84 -61.5t-32 -69.5v-156q0 -54 25.5 -123t69.5 -105q27 -21 23 -56t-36 -49l-274 -130q-27 -12 -27 -36zM969 -12q13 0 22 -9.5t9 -22.5t-9 -22t-22 -9h-94v-94
q0 -13 -9 -22t-22 -9t-22 9t-9 22v94h-94q-13 0 -22 9t-9 22t9 22.5t22 9.5h94v93q0 13 9 22.5t22 9.5t22 -9.5t9 -22.5v-93h94z" />
    <glyph glyph-name="z" unicode="z" 
d="M294 704q17 0 29.5 12t12.5 29.5t-12.5 30t-29.5 12.5t-29.5 -12.5t-12.5 -30t12.5 -29.5t29.5 -12zM454 191l-148 -96l190 -123zM282 95l-148 96l-42 -219zM294 322l119 81l-24 123h-190l-24 -123zM294 306l-153 -104l153 -99l153 99zM283 314l-110 76l-34 -174z
M305 314l144 -98l-34 174zM594 -167q6 0 6 -6.5t-6 -6.5h-428q-7 0 -7 6.5t7 6.5h357l-23 121l-206 134l-206 -133l-23 -122h43q6 0 6 -6.5t-6 -6.5h-102q-6 0 -6 6.5t6 6.5h46l71 368q0 2 1 4l64 329q1 5 6 5h50v110q0 6 6.5 6t6.5 -6v-110h31v152q-21 3 -35 18.5t-14 36.5
q0 22 16 38t39 16t39 -16t16 -38q0 -21 -14 -36.5t-35 -18.5v-152h32v85q0 6 6 6t6 -6v-85h50q5 0 6 -5l136 -701h58z" />
    <glyph glyph-name="glyph3" 
d="M33 0v666h265v-666h-265zM66 33h199v600h-199v-600z" />
  </font>
</defs>
</svg>
